<svg xmlns="http://www.w3.org/2000/svg" viewBox="0 0 51 51" id="pie-chart"><path fill="#bf7d5a" d="M11.727 32.353c.67 1.28 1.88 2.48 3.63 3.49.17.1.34.2.52.29l-.02 4.89-.7 6.33c-2.38-.66-4.61-1.56-6.58-2.7-4.72-2.72-7.09-6.31-7.08-9.89l.02-4.89c.02-3.54 2.34-7.06 6.97-9.76 2.84-1.64 6.21-2.79 9.8-3.44l2.01 5.48-.02 4.89c-1.82.41-3.54 1.04-5 1.89-1.71.99-2.89 2.17-3.55 3.42z"></path><path fill="#df3260" d="m41.023 16.363-.02 7.9-6.8 3.95c-2.99-1.33-6.67-1.89-10.24-1.68l-2-5.45.01-7.9c6.64-.56 13.63.5 19.05 3.18z"></path><path fill="#5ec363" d="m49.503 26.063-.02 8.84c0 1.11-.23 2.21-.69 3.3l-9.48-.98.01-4.71c-.5-.98-1.31-1.91-2.43-2.75l.02-8.84 6.79-3.95c3.87 2.61 5.81 5.85 5.8 9.09zM38.743 22.723zM38.743 22.723z"></path><path fill="#bf7d5a" d="M11.723 32.343c.67 1.28 1.88 2.49 3.63 3.5.17.1.35.19.52.29l-.01 4.89-.71 6.33c-2.37-.66-4.6-1.56-6.57-2.7-4.73-2.72-7.09-6.31-7.08-9.89l.02-4.86c0-3.55 2.32-7.09 6.97-9.79 2.83-1.64 6.21-2.79 9.79-3.44l2.01 5.48-.01 4.89c-1.83.4-3.54 1.04-5.01 1.89-1.7.99-2.88 2.16-3.55 3.41z"></path><path fill="#bf7d5a" d="m11.085 34.792.018-4.889c.006-2.121 1.4-4.24 4.188-5.86 1.467-.852 3.18-1.483 5.007-1.888l-.018 4.888c-1.827.405-3.54 1.036-5.007 1.888-2.787 1.62-4.182 3.739-4.188 5.86z"></path><path fill="#df3260" d="m21.977 13.184-.017 7.896 2.005 5.452c3.57-.212 7.246.347 10.242 1.678L41 24.262l.018-7.897c-5.42-2.678-12.404-3.738-19.042-3.181z"></path><path fill="#e93565" d="m23.983 18.635-.018 7.897-2.005-5.452.017-7.896z"></path><path fill="#f45170" d="m41.019 16.365-6.795 3.949c-2.995-1.331-6.672-1.89-10.241-1.679l-2.006-5.451c6.638-.557 13.623.503 19.042 3.181z"></path><path fill="#cc104a" d="m41.019 16.365-.018 7.897-6.794 3.948.017-7.896z"></path><path fill="#df3260" d="m34.224 20.314-.017 7.897c-2.996-1.332-6.673-1.89-10.242-1.68l.018-7.896c3.569-.211 7.246.348 10.241 1.679z"></path><path fill="#72d561" d="m49.497 26.063-.01 8.84a8.754 8.754 0 0 1-.69 3.3l-9.48-.98.01-4.67c-.5-.99-1.3-1.94-2.43-2.79l.01-8.84h.01l6.79-3.95c3.87 2.61 5.8 5.85 5.79 9.09z"></path><path fill="#72d561" d="m39.913 26.037-.018 8.84c.005-1.806-.994-3.613-3.002-5.115l.018-8.84c2.008 1.503 3.007 3.31 3.002 5.115zm9.589.027-.018 8.839a8.476 8.476 0 0 1-.691 3.297l.017-8.84a8.476 8.476 0 0 0 .692-3.296z"></path><path fill="#78e75a" d="M43.705 16.974c5.2 3.503 6.9 8.147 5.105 12.387l-9.48-.98c1.268-2.512.467-5.299-2.42-7.459l6.795-3.948z"></path><path fill="none" d="m48.81 29.361-.017 8.839"></path><path fill="#dedffb" d="M32.168 24.78c-3.72-2.149-9.72-2.15-13.416-.003-1.84 1.07-2.759 2.467-2.762 3.866h-.007l-.01 6.18c-.01 1.41.93 2.83 2.8 3.91 3.72 2.15 9.73 2.15 13.43 0 1.84-1.06 2.75-2.46 2.76-3.85l.01-6.148c.02-1.43-.913-2.864-2.805-3.956z"></path><path fill="#dedffb" d="m34.973 28.703-.01 6.18c-.01 1.39-.92 2.79-2.76 3.85-3.7 2.15-9.71 2.15-13.43 0-1.87-1.08-2.81-2.5-2.8-3.91l.01-6.18 18.99.06z"></path><path fill="#f3f1fc" d="M32.168 24.78c3.724 2.149 3.75 5.626.054 7.774-3.7 2.15-9.71 2.15-13.433 0-3.72-2.147-3.737-5.627-.037-7.777 3.696-2.148 9.696-2.146 13.416.002z"></path><path fill="#aa6256" d="m15.876 36.132-.018 4.888-.705 6.334.017-4.888z"></path><path fill="#bf7d5a" d="m1.502 34.764.017-4.888c-.01 3.58 2.351 7.164 7.078 9.893 1.97 1.138 4.199 2.038 6.573 2.697l-.017 4.888c-2.375-.658-4.603-1.559-6.574-2.696-4.726-2.73-7.087-6.314-7.077-9.894z"></path><path fill="#dba660" d="m18.282 16.677 2.016 5.478c-1.828.405-3.54 1.036-5.007 1.888-5.61 3.26-5.58 8.542.063 11.8.173.1.345.195.522.29l-.706 6.333c-2.374-.659-4.602-1.559-6.573-2.697-9.394-5.423-9.444-14.227-.107-19.653 2.834-1.647 6.211-2.792 9.792-3.44z"></path><path fill="#5094ff" d="m47.603 35.903-.02 4.4c-1.16 1.58-2.85 3.06-5.07 4.35-6.39 3.71-15.51 4.89-23.65 3.52l.02-4.4.64-5.76c5.33 1.41 11.83.86 16.21-1.69.76-.44 1.43-.93 1.99-1.45l9.88 1.03z"></path><path fill="#5094ff" d="M37.722 34.876a11.455 11.455 0 0 1-1.994 1.452c-4.373 2.54-10.876 3.1-16.205 1.683l-.643 5.76-.018 4.404c8.138 1.367 17.264.193 23.65-3.518 2.222-1.291 3.913-2.774 5.076-4.355l.017-4.404-9.883-1.022z"></path><path fill="#57b3fe" d="M47.605 35.898c-1.163 1.581-2.853 3.065-5.076 4.356-6.386 3.711-15.512 4.885-23.65 3.518l.644-5.761c5.329 1.417 11.832.858 16.205-1.683.77-.447 1.436-.939 1.994-1.452l9.883 1.022z"></path><path fill="#5094ff" d="m47.605 35.898-.017 4.404c-1.163 1.58-2.854 3.064-5.076 4.355-6.386 3.711-15.512 4.885-23.65 3.518l.018-4.403c8.137 1.367 17.263.193 23.65-3.518 2.222-1.291 3.912-2.775 5.075-4.356z"></path><path fill="#ffde9b" d="M32.893 15.473c-.14-.11-.29-.2-.44-.29l-2.19-1.28c-.53-.3-1.14-.42-1.83-.36-.29.02-.61.08-.95.14l-.01-5.37c1.36-.71 2.65-1.18 3.84-1.39.2-.02.35-.06.47-.13.35-.21.64-.52.85-.94.21-.41.32-.79.32-1.15 0-.47-.15-.75-.42-.85l.1.03-2.26-1.31c-.13-.07-.29-.09-.5-.06-.92.13-1.95.45-3.06.92l-1.88-1.09c-.19-.11-.4-.09-.66.06s-.48.38-.65.7c-.16.29-.26.6-.26.9l.01 1.28a14.42 14.42 0 0 0-3.24 2.97c-.93 1.14-1.63 2.33-2.1 3.52-.47 1.2-.7 2.36-.69 3.45 0 1.25.29 2.13.86 2.61.13.11.26.2.39.28l2.13 1.23c.52.35 1.16.49 1.89.46.24-.02.51-.05.8-.09l.01 5.21c-1.55.8-3.06 1.26-4.49 1.35-.17.01-.35.08-.54.19-.36.2-.65.51-.87.92-.23.41-.34.81-.34 1.18 0 .29.08.53.24.69.05.05.1.1.16.13l2.17 1.25.02.02c.02.01.05.03.07.04.12.08.26.1.41.09 1.17-.11 2.42-.42 3.71-.92l1.98 1.15c.01 0 .01.01.02.01.17.1.38.06.64-.09.28-.16.51-.39.67-.68.18-.3.26-.6.26-.89l-.01-1.3c1.22-.8 2.31-1.75 3.25-2.81.96-1.08 1.71-2.25 2.23-3.46s.78-2.39.78-3.51c-.01-1.37-.3-2.32-.89-2.81zm-10.63-.46c-.01-.07-.02-.13-.02-.22-.01-.92.31-1.86.93-2.79.07-.1.15-.19.21-.28l.01 3.06c-.42.11-.79.18-1.13.23zm5.25 6.9-.01-3.22c.52-.13.98-.22 1.4-.28-.03 1.25-.48 2.41-1.39 3.5z"></path><path fill="#febc1f" d="M32.887 15.473c-.13-.11-.28-.2-.43-.29l-2.2-1.28c-.52-.3-1.13-.42-1.83-.36-.28.02-.6.08-.94.14l-.02-5.37c1.37-.71 2.66-1.18 3.85-1.39.19-.02.34-.06.47-.13.35-.21.63-.52.85-.94.21-.41.32-.79.32-1.15 0-.47-.15-.75-.42-.85l.09.03-2.25-1.31c-.13-.07-.3-.09-.5-.06-.92.13-1.96.45-3.07.92l-1.87-1.09c-.19-.11-.41-.09-.66.06-.26.15-.49.38-.66.7-.16.29-.25.6-.25.9v1.28c-1.25.85-2.34 1.86-3.24 2.97-.92 1.14-1.63 2.33-2.09 3.52-.47 1.2-.7 2.36-.7 3.45.01 1.25.3 2.13.87 2.61.12.11.25.2.39.28l2.12 1.23c.53.35 1.16.49 1.89.46.25-.02.52-.05.8-.09l.02 5.21c-1.55.8-3.07 1.26-4.49 1.35-.18.01-.36.08-.55.19-.36.2-.65.51-.86.92-.23.41-.34.81-.34 1.18 0 .29.08.53.23.69.05.05.11.1.17.13l2.2 1.28.05.03c.12.08.26.1.42.09 1.17-.1 2.41-.42 3.71-.92 2.07 1.07 1.97 1.46 2.64 1.07.28-.16.5-.39.67-.68.17-.3.25-.59.25-.89v-1.3c1.22-.8 2.31-1.75 3.25-2.81.95-1.08 1.7-2.25 2.23-3.46.52-1.21.78-2.39.77-3.51 0-1.37-.3-2.32-.89-2.81zm-10.63-.45c0-.08-.02-.14-.02-.22 0-.93.32-1.87.94-2.8.06-.1.14-.19.21-.28l.01 3.06c-.42.11-.79.18-1.14.24zm5.25 6.89-.01-3.22c.53-.13.99-.22 1.4-.28-.02 1.25-.47 2.41-1.39 3.5z"></path><path fill="#febc1f" d="m25.946 31.018-2.255-1.31c-.163-.095-.254-.287-.255-.592l2.256 1.31c0 .306.091.498.254.592zM25.692 30.426l-2.256-1.31-.003-1.306 2.255 1.31z"></path><path fill="#ffde9b" d="m28.416 17.17 2.255 1.311c.327.19.488.566.49 1.138.006 2.083-1.185 3.902-3.642 5.542l-2.256-1.31c2.458-1.64 3.648-3.46 3.643-5.543-.002-.572-.163-.947-.49-1.137zM21.188 27.59l-2.255-1.311c1.425-.096 2.94-.559 4.491-1.352l2.256 1.311c-1.552.793-3.066 1.256-4.492 1.352z"></path><path fill="#febc1f" d="m25.68 26.237-2.256-1.311-.019-6.999 2.255 1.311z"></path><path fill="#ffde9b" d="m30.258 13.903 2.255 1.311c-.52-.303-1.13-.423-1.826-.363-.85.08-1.924.318-3.196.7l-2.255-1.312c1.272-.381 2.345-.619 3.196-.698.695-.06 1.305.06 1.826.362zM19.84 30.695l-2.255-1.31a.778.778 0 0 1-.166-.132c-.154-.16-.231-.395-.232-.688-.001-.375.106-.775.335-1.179l2.256 1.31c-.23.405-.337.805-.336 1.18 0 .293.078.527.232.688a.777.777 0 0 0 .166.131z"></path><path fill="#ffde9b" d="m19.778 28.697-2.256-1.31c.217-.412.51-.721.867-.928.192-.11.37-.177.544-.181l2.255 1.31c-.173.005-.352.071-.543.182a2.25 2.25 0 0 0-.867.927zm3.055-12.481-2.255-1.311c.086.05.181.089.286.117.576.138 1.433.062 2.532-.242l2.255 1.31c-1.099.305-1.956.38-2.532.243a1.168 1.168 0 0 1-.286-.117z"></path><path fill="#febc1f" d="m25.651 16.091-2.255-1.311-.019-6.61 2.255 1.311z"></path><path fill="#ffde9b" d="m30.375 2.577 2.255 1.311c-.128-.074-.294-.096-.497-.064-1.355.187-2.933.76-4.67 1.668l-2.256-1.31c1.737-.908 3.315-1.481 4.67-1.668.204-.033.37-.011.498.063z"></path><path fill="#ffde9b" d="M24.934 2.34c-.186-.106-.404-.083-.659.065a1.76 1.76 0 0 0-.657.695c-.159.297-.254.602-.253.903l.004 1.276 2.255 1.311-.003-1.277c-.001-.3.094-.605.253-.903.172-.312.395-.544.656-.695.256-.147.473-.17.659-.064l-2.255-1.31z"></path><path fill="#ffd06c" d="M32.889 15.476c.59.49.886 1.436.89 2.808.003 1.122-.256 2.3-.777 3.512-.52 1.205-1.272 2.374-2.228 3.455a15.853 15.853 0 0 1-3.247 2.808l.003 1.306c.001.293-.081.59-.253.888a1.844 1.844 0 0 1-.67.68c-.261.152-.478.189-.645.094-.173-.091-.27-.285-.27-.6l-.004-1.307c-1.922.956-3.75 1.511-5.431 1.666a.707.707 0 0 1-.583-.222c-.154-.16-.231-.395-.232-.689-.001-.374.107-.774.336-1.178.216-.412.51-.72.867-.927.191-.11.37-.177.543-.181 1.426-.096 2.94-.559 4.492-1.352l-.02-6.999c-1.195.323-2.224.513-3.049.563-.857.046-1.58-.168-2.15-.655-.571-.486-.861-1.362-.865-2.609-.003-1.093.224-2.253.694-3.45.463-1.194 1.17-2.388 2.094-3.524a15.088 15.088 0 0 1 3.24-2.973l-.003-1.277c-.001-.3.094-.605.253-.903.172-.312.395-.544.656-.695.256-.147.473-.17.659-.064.18.102.27.3.27.6l.004 1.24c1.737-.907 3.315-1.48 4.67-1.667.543-.086.82.21.821.878.001.36-.107.745-.317 1.153-.216.419-.503.731-.854.934-.121.07-.275.115-.466.137-1.19.209-2.48.675-3.846 1.39l.02 7.234c1.272-.381 2.346-.62 3.196-.699.87-.075 1.605.132 2.202.625zm-5.37 9.685c2.457-1.64 3.648-3.459 3.642-5.542-.002-.785-.304-1.199-.925-1.274-.62-.075-1.534.048-2.736.352l.019 6.464m-1.868-9.07-.019-6.61c-1.008.758-1.837 1.604-2.455 2.52-.624.933-.94 1.873-.938 2.797.002.888.298 1.379.88 1.535.576.137 1.433.062 2.532-.242"></path><path fill="#ffde9b" d="m20.851 19.423-2.255-1.31a2.67 2.67 0 0 1-.39-.277c-.571-.487-.862-1.363-.865-2.61-.003-1.093.224-2.253.693-3.45.464-1.193 1.17-2.388 2.094-3.524a15.088 15.088 0 0 1 3.24-2.973l2.256 1.311a15.088 15.088 0 0 0-3.24 2.973c-.924 1.136-1.63 2.33-2.094 3.524-.47 1.197-.697 2.357-.694 3.45.004 1.247.294 2.123.864 2.61.124.104.254.197.391.276z"></path></svg>