<svg xmlns="http://www.w3.org/2000/svg" viewBox="0 0 32 32" id="sniper"><path d="M29.63,3.19a1,1,0,0,0-1.41-.14l-6,4.9L21.5,7a1,1,0,0,0-1.41-.14L17.49,9l-.85-1a2,2,0,0,0-1.3-.7,2,2,0,0,0-1.41.43h0L8.61,12.08a1.93,1.93,0,0,0-.27,2.71l.86,1L7.44,17.28,3.39,20.6a3.4,3.4,0,0,0-.47,4.78l3.32,4.05a1,1,0,0,0,.77.36,1,1,0,0,0,.64-.22L11,26.8a1,1,0,0,0,.14-1.41L9.72,23.64l1.61-1.32,1.37,2.9a1,1,0,0,0,.69.55.78.78,0,0,0,.22,0,1,1,0,0,0,.63-.23l3.38-2.77a1,1,0,0,0,.14-1.4l-2.14-2.61,1.83-1.49,2.13,2.6a1,1,0,0,0,.68.36h.1A1,1,0,0,0,21,20L23.52,18a1,1,0,0,0,.14-1.41L21.53,14l2.6-2.13a1,1,0,0,0,.36-.68,1.07,1.07,0,0,0-.22-.73l-.75-.91,6-4.9A1,1,0,0,0,29.63,3.19ZM9.94,13.58l5.2-4.26.8,1-5.2,4.27ZM7.54,24.13,9,25.89l-1.83,1.5L4.46,24.11a1.39,1.39,0,0,1,.2-2l3.27-2.69,1.5,1.82L7.68,22.72A1,1,0,0,0,7.54,24.13Zm8-2.24L14,23.21l-1-2.2,1.16-1Zm5.91-4.84-1,.81L19,16l1-.81Zm-2-4h0L17,15.12h0l-3.37,2.76h0L11.05,20h0L11,20l-1.5-1.83,1.76-1.44h0L18,11.21h0l2.6-2.13.75.91h0l.75.92Z"></path></svg>